<svg width="100" height="100" viewBox="0 0 100 100" fill="none" xmlns="http://www.w3.org/2000/svg">
<path id="RaidPlan_01_1" d="M50.7335 6.0176C50.191 5.39157 49.2436 5.3239 48.6176 5.86647C47.9916 6.40903 47.9239 7.35636 48.4665 7.9824L50.7335 6.0176ZM48.4665 30.0176C47.9239 30.6436 47.9916 31.591 48.6176 32.1335C49.2436 32.6761 50.191 32.6084 50.7335 31.9824L48.4665 30.0176ZM60 19L61.1335 19.9824C61.6222 19.4186 61.6222 18.5814 61.1335 18.0176L60 19ZM48.4665 7.9824L58.8665 19.9824L61.1335 18.0176L50.7335 6.0176L48.4665 7.9824ZM58.8665 18.0176L48.4665 30.0176L50.7335 31.9824L61.1335 19.9824L58.8665 18.0176Z" fill="#D9CBAD"/>
<path id="RaidPlan_02_2" d="M41.1335 6.0176C40.591 5.39157 39.6436 5.3239 39.0176 5.86647C38.3916 6.40903 38.3239 7.35636 38.8665 7.9824L41.1335 6.0176ZM38.8665 30.0176C38.3239 30.6436 38.3916 31.591 39.0176 32.1335C39.6436 32.6761 40.591 32.6084 41.1335 31.9824L38.8665 30.0176ZM50.4 19L51.5335 19.9824C52.0222 19.4186 52.0222 18.5814 51.5335 18.0176L50.4 19ZM38.8665 7.9824L49.2665 19.9824L51.5335 18.0176L41.1335 6.0176L38.8665 7.9824ZM49.2665 18.0176L38.8665 30.0176L41.1335 31.9824L51.5335 19.9824L49.2665 18.0176Z" fill="#D9CBAD"/>
<path id="RaidPlan_03_1" d="M50.7335 37.0176C50.191 36.3916 49.2436 36.3239 48.6176 36.8665C47.9916 37.409 47.9239 38.3564 48.4665 38.9824L50.7335 37.0176ZM48.4665 61.0176C47.9239 61.6436 47.9916 62.591 48.6176 63.1335C49.2436 63.6761 50.191 63.6084 50.7335 62.9824L48.4665 61.0176ZM60 50L61.1335 50.9824C61.6222 50.4186 61.6222 49.5814 61.1335 49.0176L60 50ZM48.4665 38.9824L58.8665 50.9824L61.1335 49.0176L50.7335 37.0176L48.4665 38.9824ZM58.8665 49.0176L48.4665 61.0176L50.7335 62.9824L61.1335 50.9824L58.8665 49.0176Z" fill="#D9CBAD"/>
<path id="RaidPlan_04_2" d="M41.1335 37.0176C40.591 36.3916 39.6436 36.3239 39.0176 36.8665C38.3916 37.409 38.3239 38.3564 38.8665 38.9824L41.1335 37.0176ZM38.8665 61.0176C38.3239 61.6436 38.3916 62.591 39.0176 63.1335C39.6436 63.6761 40.591 63.6084 41.1335 62.9824L38.8665 61.0176ZM50.4 50L51.5335 50.9824C52.0222 50.4186 52.0222 49.5814 51.5335 49.0176L50.4 50ZM38.8665 38.9824L49.2665 50.9824L51.5335 49.0176L41.1335 37.0176L38.8665 38.9824ZM49.2665 49.0176L38.8665 61.0176L41.1335 62.9824L51.5335 50.9824L49.2665 49.0176Z" fill="#D9CBAD"/>
<path id="RaidPlan_05_1" d="M50.7335 68.0176C50.191 67.3916 49.2436 67.3239 48.6176 67.8665C47.9916 68.409 47.9239 69.3564 48.4665 69.9824L50.7335 68.0176ZM48.4665 92.0176C47.9239 92.6436 47.9916 93.591 48.6176 94.1335C49.2436 94.6761 50.191 94.6084 50.7335 93.9824L48.4665 92.0176ZM60 81L61.1335 81.9824C61.6222 81.4186 61.6222 80.5814 61.1335 80.0176L60 81ZM48.4665 69.9824L58.8665 81.9824L61.1335 80.0176L50.7335 68.0176L48.4665 69.9824ZM58.8665 80.0176L48.4665 92.0176L50.7335 93.9824L61.1335 81.9824L58.8665 80.0176Z" fill="#D9CBAD"/>
<path id="RaidPlan_06_2" d="M41.1335 68.0176C40.591 67.3916 39.6436 67.3239 39.0176 67.8665C38.3916 68.409 38.3239 69.3564 38.8665 69.9824L41.1335 68.0176ZM38.8665 92.0176C38.3239 92.6436 38.3916 93.591 39.0176 94.1335C39.6436 94.6761 40.591 94.6084 41.1335 93.9824L38.8665 92.0176ZM50.4 81L51.5335 81.9824C52.0222 81.4186 52.0222 80.5814 51.5335 80.0176L50.4 81ZM38.8665 69.9824L49.2665 81.9824L51.5335 80.0176L41.1335 68.0176L38.8665 69.9824ZM49.2665 80.0176L38.8665 92.0176L41.1335 93.9824L51.5335 81.9824L49.2665 80.0176Z" fill="#D9CBAD"/>
<path id="RaidPlan_07_1" d="M23.7335 6.0176C23.191 5.39157 22.2436 5.3239 21.6176 5.86647C20.9916 6.40903 20.9239 7.35636 21.4665 7.9824L23.7335 6.0176ZM21.4665 30.0176C20.9239 30.6436 20.9916 31.591 21.6176 32.1335C22.2436 32.6761 23.191 32.6084 23.7335 31.9824L21.4665 30.0176ZM33 19L34.1335 19.9824C34.6222 19.4186 34.6222 18.5814 34.1335 18.0176L33 19ZM21.4665 7.9824L31.8665 19.9824L34.1335 18.0176L23.7335 6.0176L21.4665 7.9824ZM31.8665 18.0176L21.4665 30.0176L23.7335 31.9824L34.1335 19.9824L31.8665 18.0176Z" fill="#D9CBAD"/>
<path id="RaidPlan_08_2" d="M14.1335 6.0176C13.591 5.39157 12.6436 5.3239 12.0176 5.86647C11.3916 6.40903 11.3239 7.35636 11.8665 7.9824L14.1335 6.0176ZM11.8665 30.0176C11.3239 30.6436 11.3916 31.591 12.0176 32.1335C12.6436 32.6761 13.591 32.6084 14.1335 31.9824L11.8665 30.0176ZM23.4 19L24.5335 19.9824C25.0222 19.4186 25.0222 18.5814 24.5335 18.0176L23.4 19ZM11.8665 7.9824L22.2665 19.9824L24.5335 18.0176L14.1335 6.0176L11.8665 7.9824ZM22.2665 18.0176L11.8665 30.0176L14.1335 31.9824L24.5335 19.9824L22.2665 18.0176Z" fill="#D9CBAD"/>
<path id="RaidPlan_09_1" d="M23.7335 37.0176C23.191 36.3916 22.2436 36.3239 21.6176 36.8665C20.9916 37.409 20.9239 38.3564 21.4665 38.9824L23.7335 37.0176ZM21.4665 61.0176C20.9239 61.6436 20.9916 62.591 21.6176 63.1335C22.2436 63.6761 23.191 63.6084 23.7335 62.9824L21.4665 61.0176ZM33 50L34.1335 50.9824C34.6222 50.4186 34.6222 49.5814 34.1335 49.0176L33 50ZM21.4665 38.9824L31.8665 50.9824L34.1335 49.0176L23.7335 37.0176L21.4665 38.9824ZM31.8665 49.0176L21.4665 61.0176L23.7335 62.9824L34.1335 50.9824L31.8665 49.0176Z" fill="#D9CBAD"/>
<path id="RaidPlan_10_2" d="M14.1335 37.0176C13.591 36.3916 12.6436 36.3239 12.0176 36.8665C11.3916 37.409 11.3239 38.3564 11.8665 38.9824L14.1335 37.0176ZM11.8665 61.0176C11.3239 61.6436 11.3916 62.591 12.0176 63.1335C12.6436 63.6761 13.591 63.6084 14.1335 62.9824L11.8665 61.0176ZM23.4 50L24.5335 50.9824C25.0222 50.4186 25.0222 49.5814 24.5335 49.0176L23.4 50ZM11.8665 38.9824L22.2665 50.9824L24.5335 49.0176L14.1335 37.0176L11.8665 38.9824ZM22.2665 49.0176L11.8665 61.0176L14.1335 62.9824L24.5335 50.9824L22.2665 49.0176Z" fill="#D9CBAD"/>
<path id="RaidPlan_11_1" d="M23.7335 68.0176C23.191 67.3916 22.2436 67.3239 21.6176 67.8665C20.9916 68.409 20.9239 69.3564 21.4665 69.9824L23.7335 68.0176ZM21.4665 92.0176C20.9239 92.6436 20.9916 93.591 21.6176 94.1335C22.2436 94.6761 23.191 94.6084 23.7335 93.9824L21.4665 92.0176ZM33 81L34.1335 81.9824C34.6222 81.4186 34.6222 80.5814 34.1335 80.0176L33 81ZM21.4665 69.9824L31.8665 81.9824L34.1335 80.0176L23.7335 68.0176L21.4665 69.9824ZM31.8665 80.0176L21.4665 92.0176L23.7335 93.9824L34.1335 81.9824L31.8665 80.0176Z" fill="#D9CBAD"/>
<path id="RaidPlan_12_2" d="M14.1335 68.0176C13.591 67.3916 12.6436 67.3239 12.0176 67.8665C11.3916 68.409 11.3239 69.3564 11.8665 69.9824L14.1335 68.0176ZM11.8665 92.0176C11.3239 92.6436 11.3916 93.591 12.0176 94.1335C12.6436 94.6761 13.591 94.6084 14.1335 93.9824L11.8665 92.0176ZM23.4 81L24.5335 81.9824C25.0222 81.4186 25.0222 80.5814 24.5335 80.0176L23.4 81ZM11.8665 69.9824L22.2665 81.9824L24.5335 80.0176L14.1335 68.0176L11.8665 69.9824ZM22.2665 80.0176L11.8665 92.0176L14.1335 93.9824L24.5335 81.9824L22.2665 80.0176Z" fill="#D9CBAD"/>
<path id="RaidPlan_13_1" d="M77.7335 6.0176C77.191 5.39157 76.2436 5.3239 75.6176 5.86647C74.9916 6.40903 74.9239 7.35636 75.4665 7.9824L77.7335 6.0176ZM75.4665 30.0176C74.9239 30.6436 74.9916 31.591 75.6176 32.1335C76.2436 32.6761 77.191 32.6084 77.7335 31.9824L75.4665 30.0176ZM87 19L88.1335 19.9824C88.6222 19.4186 88.6222 18.5814 88.1335 18.0176L87 19ZM75.4665 7.9824L85.8665 19.9824L88.1335 18.0176L77.7335 6.0176L75.4665 7.9824ZM85.8665 18.0176L75.4665 30.0176L77.7335 31.9824L88.1335 19.9824L85.8665 18.0176Z" fill="#D9CBAD"/>
<path id="RaidPlan_14_2" d="M68.1335 6.0176C67.591 5.39157 66.6436 5.3239 66.0176 5.86647C65.3916 6.40903 65.3239 7.35636 65.8665 7.9824L68.1335 6.0176ZM65.8665 30.0176C65.3239 30.6436 65.3916 31.591 66.0176 32.1335C66.6436 32.6761 67.591 32.6084 68.1335 31.9824L65.8665 30.0176ZM77.4 19L78.5335 19.9824C79.0222 19.4186 79.0222 18.5814 78.5335 18.0176L77.4 19ZM65.8665 7.9824L76.2665 19.9824L78.5335 18.0176L68.1335 6.0176L65.8665 7.9824ZM76.2665 18.0176L65.8665 30.0176L68.1335 31.9824L78.5335 19.9824L76.2665 18.0176Z" fill="#D9CBAD"/>
<path id="RaidPlan_15_1" d="M77.7335 37.0176C77.191 36.3916 76.2436 36.3239 75.6176 36.8665C74.9916 37.409 74.9239 38.3564 75.4665 38.9824L77.7335 37.0176ZM75.4665 61.0176C74.9239 61.6436 74.9916 62.591 75.6176 63.1335C76.2436 63.6761 77.191 63.6084 77.7335 62.9824L75.4665 61.0176ZM87 50L88.1335 50.9824C88.6222 50.4186 88.6222 49.5814 88.1335 49.0176L87 50ZM75.4665 38.9824L85.8665 50.9824L88.1335 49.0176L77.7335 37.0176L75.4665 38.9824ZM85.8665 49.0176L75.4665 61.0176L77.7335 62.9824L88.1335 50.9824L85.8665 49.0176Z" fill="#D9CBAD"/>
<path id="RaidPlan_16_2" d="M68.1335 37.0176C67.591 36.3916 66.6436 36.3239 66.0176 36.8665C65.3916 37.409 65.3239 38.3564 65.8665 38.9824L68.1335 37.0176ZM65.8665 61.0176C65.3239 61.6436 65.3916 62.591 66.0176 63.1335C66.6436 63.6761 67.591 63.6084 68.1335 62.9824L65.8665 61.0176ZM77.4 50L78.5335 50.9824C79.0222 50.4186 79.0222 49.5814 78.5335 49.0176L77.4 50ZM65.8665 38.9824L76.2665 50.9824L78.5335 49.0176L68.1335 37.0176L65.8665 38.9824ZM76.2665 49.0176L65.8665 61.0176L68.1335 62.9824L78.5335 50.9824L76.2665 49.0176Z" fill="#D9CBAD"/>
<path id="RaidPlan_17_1" d="M77.7335 68.0176C77.191 67.3916 76.2436 67.3239 75.6176 67.8665C74.9916 68.409 74.9239 69.3564 75.4665 69.9824L77.7335 68.0176ZM75.4665 92.0176C74.9239 92.6436 74.9916 93.591 75.6176 94.1335C76.2436 94.6761 77.191 94.6084 77.7335 93.9824L75.4665 92.0176ZM87 81L88.1335 81.9824C88.6222 81.4186 88.6222 80.5814 88.1335 80.0176L87 81ZM75.4665 69.9824L85.8665 81.9824L88.1335 80.0176L77.7335 68.0176L75.4665 69.9824ZM85.8665 80.0176L75.4665 92.0176L77.7335 93.9824L88.1335 81.9824L85.8665 80.0176Z" fill="#D9CBAD"/>
<path id="RaidPlan_18_2" d="M68.1335 68.0176C67.591 67.3916 66.6436 67.3239 66.0176 67.8665C65.3916 68.409 65.3239 69.3564 65.8665 69.9824L68.1335 68.0176ZM65.8665 92.0176C65.3239 92.6436 65.3916 93.591 66.0176 94.1335C66.6436 94.6761 67.591 94.6084 68.1335 93.9824L65.8665 92.0176ZM77.4 81L78.5335 81.9824C79.0222 81.4186 79.0222 80.5814 78.5335 80.0176L77.4 81ZM65.8665 69.9824L76.2665 81.9824L78.5335 80.0176L68.1335 68.0176L65.8665 69.9824ZM76.2665 80.0176L65.8665 92.0176L68.1335 93.9824L78.5335 81.9824L76.2665 80.0176Z" fill="#D9CBAD"/>
</svg>
